<?xml version="1.0" encoding="utf-8"?>
<!-- Generator: Adobe Illustrator 19.1.0, SVG Export Plug-In . SVG Version: 6.00 Build 0)  -->
<!DOCTYPE svg PUBLIC "-//W3C//DTD SVG 1.0//EN" "http://www.w3.org/TR/2001/REC-SVG-20010904/DTD/svg10.dtd">
<svg version="1.0" id="Layer_2_copy" xmlns="http://www.w3.org/2000/svg" xmlns:xlink="http://www.w3.org/1999/xlink" x="0px"
	 y="0px" viewBox="0 0 240 240" style="enable-background:new 0 0 240 240;" xml:space="preserve">
<style type="text/css">
	.st0{fill:#66245B;}
</style>
<path class="st0" d="M238.7,122.6c1.7-1.4,1.7-3.8,0-5.2l-4.3-3.6c-1.7-1.4-1.9-4-0.4-5.7l3.7-4.2c1.5-1.7,1.1-4-0.8-5.1l-4.8-2.8
	c-1.9-1.1-2.5-3.6-1.3-5.5l3-4.7c1.2-1.9,0.5-4.1-1.6-5l-5.2-2.1c-2.1-0.8-3.1-3.2-2.2-5.2l2.2-5.1c0.9-2.1-0.2-4.1-2.4-4.6
	l-5.4-1.2c-2.2-0.5-3.5-2.7-3-4.8l1.4-5.4c0.5-2.2-0.8-4.1-3.1-4.2l-5.5-0.4c-2.2-0.2-3.9-2.1-3.7-4.3l0.5-5.5
	c0.2-2.2-1.5-3.9-3.7-3.7l-5.5,0.5c-2.2,0.2-4.2-1.5-4.3-3.7l-0.4-5.5c-0.2-2.2-2-3.6-4.2-3.1l-5.4,1.4c-2.2,0.5-4.3-0.8-4.8-3
	l-1.2-5.4c-0.5-2.2-2.6-3.2-4.6-2.4l-5.1,2.2c-2.1,0.9-4.4-0.1-5.2-2.2l-2.1-5.2c-0.8-2.1-3.1-2.8-5-1.6l-4.7,3
	c-1.9,1.2-4.4,0.6-5.5-1.3l-2.8-4.8c-1.1-1.9-3.5-2.3-5.1-0.8L131.8,6c-1.7,1.5-4.2,1.3-5.7-0.4l-3.6-4.3c-1.4-1.7-3.8-1.7-5.2,0
	l-3.6,4.3c-1.4,1.7-4,1.9-5.7,0.4L104,2.3c-1.7-1.5-4-1.1-5.1,0.8L96,7.9c-1.1,1.9-3.6,2.5-5.5,1.3l-4.7-3c-1.9-1.2-4.1-0.5-5,1.6
	l-2.1,5.2c-0.8,2.1-3.2,3.1-5.2,2.2L68.4,13c-2.1-0.9-4.1,0.2-4.6,2.4l-1.2,5.4c-0.5,2.2-2.7,3.5-4.8,3l-5.4-1.4
	c-2.2-0.5-4.1,0.8-4.2,3.1L47.7,31c-0.2,2.2-2.1,3.9-4.3,3.7l-5.5-0.5c-2.2-0.2-3.9,1.5-3.7,3.7l0.5,5.5c0.2,2.2-1.5,4.2-3.7,4.3
	l-5.5,0.4c-2.2,0.2-3.6,2-3.1,4.2l1.4,5.4c0.5,2.2-0.8,4.3-3,4.8l-5.4,1.2c-2.2,0.5-3.2,2.6-2.4,4.6l2.2,5.1
	c0.9,2.1-0.1,4.4-2.2,5.2l-5.2,2.1c-2.1,0.8-2.8,3.1-1.6,5l3,4.7c1.2,1.9,0.6,4.4-1.3,5.5l-4.8,2.8c-1.9,1.1-2.3,3.5-0.8,5.1
	l3.7,4.2c1.5,1.7,1.3,4.2-0.4,5.7l-4.3,3.6c-1.7,1.4-1.7,3.8,0,5.2l4.3,3.6c1.7,1.4,1.9,4,0.4,5.7L2.3,136c-1.5,1.7-1.1,4,0.8,5.1
	l4.8,2.8c1.9,1.1,2.5,3.6,1.3,5.5l-3,4.7c-1.2,1.9-0.5,4.1,1.6,5l5.2,2.1c2.1,0.8,3.1,3.2,2.2,5.2l-2.2,5.1
	c-0.9,2.1,0.2,4.1,2.4,4.6l5.4,1.2c2.2,0.5,3.5,2.7,3,4.8l-1.4,5.4c-0.5,2.2,0.8,4.1,3.1,4.2l5.5,0.4c2.2,0.2,3.9,2.1,3.7,4.3
	l-0.5,5.5c-0.2,2.2,1.5,3.9,3.7,3.7l5.5-0.5c2.2-0.2,4.2,1.5,4.3,3.7l0.4,5.5c0.2,2.2,2,3.6,4.2,3.1l5.4-1.4c2.2-0.5,4.3,0.8,4.8,3
	l1.2,5.4c0.5,2.2,2.6,3.2,4.6,2.4l5.1-2.2c2.1-0.9,4.4,0.1,5.2,2.2l2.1,5.2c0.8,2.1,3.1,2.8,5,1.6l4.7-3c1.9-1.2,4.4-0.6,5.5,1.3
	l2.8,4.8c1.1,1.9,3.5,2.3,5.1,0.8l4.2-3.7c1.7-1.5,4.2-1.3,5.7,0.4l3.6,4.3c1.4,1.7,3.8,1.7,5.2,0l3.6-4.3c1.4-1.7,4-1.9,5.7-0.4
	l4.2,3.7c1.7,1.5,4,1.1,5.1-0.8l2.8-4.8c1.1-1.9,3.6-2.5,5.5-1.3l4.7,3c1.9,1.2,4.1,0.5,5-1.6l2.1-5.2c0.8-2.1,3.2-3.1,5.2-2.2
	l5.1,2.2c2.1,0.9,4.1-0.2,4.6-2.4l1.2-5.4c0.5-2.2,2.7-3.5,4.8-3l5.4,1.4c2.2,0.5,4.1-0.8,4.2-3.1l0.4-5.5c0.2-2.2,2.1-3.9,4.3-3.7
	l5.5,0.5c2.2,0.2,3.9-1.5,3.7-3.7l-0.5-5.5c-0.2-2.2,1.5-4.2,3.7-4.3l5.5-0.4c2.2-0.2,3.6-2,3.1-4.2l-1.4-5.4
	c-0.5-2.2,0.8-4.3,3-4.8l5.4-1.2c2.2-0.5,3.2-2.6,2.4-4.6l-2.2-5.1c-0.9-2.1,0.1-4.4,2.2-5.2l5.2-2.1c2.1-0.8,2.8-3.1,1.6-5l-3-4.7
	c-1.2-1.9-0.6-4.4,1.3-5.5l4.8-2.8c1.9-1.1,2.3-3.5,0.8-5.1l-3.7-4.2c-1.5-1.7-1.3-4.2,0.4-5.7L238.7,122.6z M65,125
	c-2.8,0-5-2.2-5-5s2.2-5,5-5s5,2.2,5,5S67.8,125,65,125z M74.9,151.8c-2.4,1.4-5.4,0.6-6.8-1.8c-1.4-2.4-0.6-5.4,1.8-6.8
	s5.4-0.6,6.8,1.8C78.1,147.4,77.3,150.4,74.9,151.8z M76.7,95c-1.4,2.4-4.4,3.2-6.8,1.8c-2.4-1.4-3.2-4.4-1.8-6.8
	c1.4-2.4,4.4-3.2,6.8-1.8S78.1,92.6,76.7,95z M96.8,170.1c-1.4,2.4-4.4,3.2-6.8,1.8c-2.4-1.4-3.2-4.4-1.8-6.8
	c1.4-2.4,4.4-3.2,6.8-1.8C97.4,164.7,98.2,167.7,96.8,170.1z M95,76.7c-2.4,1.4-5.4,0.6-6.8-1.8c-1.4-2.4-0.6-5.4,1.8-6.8
	c2.4-1.4,5.4-0.6,6.8,1.8C98.2,72.3,97.4,75.3,95,76.7z M120,60c2.8,0,5,2.2,5,5s-2.2,5-5,5s-5-2.2-5-5S117.2,60,120,60z M120,180
	c-2.8,0-5-2.2-5-5s2.2-5,5-5s5,2.2,5,5S122.8,180,120,180z M120,140c-11,0-20-9-20-20c0-11,9-20,20-20s20,9,20,20
	C140,131,131,140,120,140z M150,172c-2.4,1.4-5.4,0.6-6.8-1.8c-1.4-2.4-0.6-5.4,1.8-6.8c2.4-1.4,5.4-0.6,6.8,1.8
	C153.2,167.5,152.4,170.6,150,172z M151.8,74.9c-1.4,2.4-4.4,3.2-6.8,1.8c-2.4-1.4-3.2-4.4-1.8-6.8c1.4-2.4,4.4-3.2,6.8-1.8
	C152.4,69.4,153.2,72.5,151.8,74.9z M165.1,88.2c2.4-1.4,5.4-0.6,6.8,1.8c1.4,2.4,0.6,5.4-1.8,6.8c-2.4,1.4-5.4,0.6-6.8-1.8
	C161.9,92.6,162.7,89.6,165.1,88.2z M172,150c-1.4,2.4-4.4,3.2-6.8,1.8c-2.4-1.4-3.2-4.4-1.8-6.8c1.4-2.4,4.4-3.2,6.8-1.8
	S173.3,147.6,172,150z M175,125c-2.8,0-5-2.2-5-5s2.2-5,5-5s5,2.2,5,5S177.8,125,175,125z"/>
</svg>
